<svg width="22" height="22" viewBox="0 0 22 22" fill="none" xmlns="http://www.w3.org/2000/svg">
<path d="M19.2783 0H8.27828C7.55643 0 6.86415 0.289168 6.35373 0.80389C5.84331 1.31861 5.55655 2.01673 5.55655 2.74465V5.41802H2.72879C2.00817 5.41612 1.31621 5.70249 0.80466 6.21434C0.293115 6.72619 0.00374107 7.42172 0 8.14841V19.2553C0.00186617 19.9827 0.289218 20.6797 0.799236 21.194C1.30925 21.7083 2.00045 21.9981 2.72172 22H13.7217C14.4436 22 15.1358 21.7108 15.6463 21.1961C16.1567 20.6814 16.4434 19.9833 16.4434 19.2553V16.582H19.2712C19.9918 16.5839 20.6838 16.2975 21.1953 15.7857C21.7069 15.2738 21.9963 14.5783 22 13.8516V2.74465C21.9981 2.0173 21.7108 1.32028 21.2008 0.805969C20.6907 0.291654 19.9995 0.00188189 19.2783 0ZM14.2661 19.2482C14.2661 19.3938 14.2087 19.5334 14.1066 19.6364C14.0045 19.7393 13.8661 19.7971 13.7217 19.7971H2.72172C2.57792 19.7953 2.44053 19.7369 2.33884 19.6343C2.23715 19.5318 2.17921 19.3932 2.17738 19.2482V8.14841C2.17738 8.00283 2.23473 7.8632 2.33681 7.76026C2.4389 7.65732 2.57735 7.59948 2.72172 7.59948H13.7217C13.7935 7.59852 13.8647 7.61207 13.9312 7.63931C13.9976 7.66656 14.058 7.70696 14.1088 7.75812C14.1595 7.80929 14.1995 7.87018 14.2266 7.93722C14.2536 8.00425 14.267 8.07606 14.2661 8.14841V19.2553V19.2482ZM19.8226 13.8516C19.8226 13.9237 19.8085 13.9951 19.7812 14.0617C19.7538 14.1283 19.7137 14.1888 19.6632 14.2397C19.6126 14.2907 19.5526 14.3311 19.4866 14.3587C19.4205 14.3863 19.3498 14.4005 19.2783 14.4005H16.4505V8.14841C16.4505 7.42048 16.1638 6.72237 15.6533 6.20765C15.1429 5.69293 14.4506 5.40376 13.7288 5.40376H7.73393V2.74465C7.73393 2.59907 7.79128 2.45945 7.89337 2.3565C7.99545 2.25356 8.13391 2.19572 8.27828 2.19572H19.2783C19.4221 2.19757 19.5595 2.256 19.6612 2.35854C19.7629 2.46109 19.8208 2.59964 19.8226 2.74465V13.8516Z" fill="white"/>
</svg>
