<svg width="427" height="208" viewBox="0 0 427 208" fill="none" xmlns="http://www.w3.org/2000/svg">
<path d="M17.41 181.04L16.68 186.6C16.35 189.34 18.51 191.75 21.31 191.75H202.15C204.96 191.75 207.12 189.34 206.8 186.6L206.05 181.04C205.6 176.71 208.76 172.75 213.08 172.3C217.43 171.83 221.27 175 221.72 179.32L222.42 184.73C223.83 196.82 216.97 207.44 204.75 207.44H18.72C6.5 207.44 -0.359997 196.83 1.05 184.73L1.75 179.32C2.21 175 6.04 171.83 10.37 172.3C14.7 172.76 17.85 176.71 17.41 181.04Z" fill="white"/>
<path d="M184.58 139.12C193.38 139.14 200.39 132.73 200.21 124.29C200.03 115.65 192.17 110.07 183.4 110.06H165.7C161.78 110.06 158.56 106.8 158.56 102.72C158.56 98.63 161.77 95.36 165.7 95.36H177.53C185.5 95.04 191.65 90.21 192.03 82.67C192.43 74.6 185.49 68.54 177 68.54H148.3L148.18 139.13H184.58V139.12ZM206.34 82.62C206.34 89.98 203.73 94.15 199.41 99.28L198.98 99.8L199.58 100.17C208.13 105.38 214.1 113.26 214.54 124.32C215.2 140.8 201.24 154.43 184.66 154.4H140.96C136.71 154.4 133.27 150.86 133.27 146.51V61.75C133.27 57.38 136.71 53.86 140.94 53.86L177.02 53.96C192.75 53.97 206.34 65.53 206.34 82.62Z" fill="white"/>
<path d="M65.49 125.34L65.69 125.94L65.91 125.34C67.94 119.76 70.38 113.58 72.97 106.84C75.64 99.75 78.3 92.97 80.96 86.51C83.65 79.95 86.19 74.1 88.62 69C91.04 63.79 93.05 60.21 94.6 58.25C96.99 55.39 100.15 53.95 104.08 53.95H105.89C108.3 53.95 110.18 54.58 111.59 55.78C112.88 56.91 113.65 58.21 113.87 59.7L125.16 147.28C125.16 149.54 124.51 151.28 123.23 152.58C121.95 153.79 120.12 154.39 117.73 154.39C115.34 154.39 113.44 153.82 112.05 152.71C110.51 151.6 109.63 150.14 109.41 148.33C109.03 145.42 108.68 142.18 108.33 138.63C107.83 135.09 106.07 119.81 105.57 115.96C105.11 111.99 101.93 87.25 100.85 78.26L100.75 77.5L97.13 85.09C95.9 87.7 94.57 90.84 93.11 94.49C91.67 98.14 90.19 102 88.74 106.07C87.16 110.02 80.17 130 80.17 130C79.52 131.81 78.29 135.46 77.18 138.82C76.05 142.16 75.02 145.18 74.74 145.76C73.08 149.06 69.84 151.24 65.72 151.27C61.55 151.25 58.31 149.06 56.67 145.76C56.37 145.18 55.34 142.15 54.21 138.82C53.08 135.46 51.88 131.81 51.2 130C51.2 130 44.21 110.02 42.65 106.07C41.19 102 39.73 98.15 38.27 94.49C36.81 90.84 35.48 87.7 34.28 85.09L30.64 77.5L30.56 78.26C29.46 87.25 26.31 111.99 25.83 115.96C25.33 119.81 23.57 135.09 23.09 138.63C22.72 142.18 22.36 145.42 21.98 148.33C21.76 150.14 20.88 151.6 19.36 152.71C17.95 153.82 16.06 154.39 13.66 154.39C11.27 154.39 9.45999 153.79 8.17999 152.58C6.89999 151.28 6.24999 149.52 6.23999 147.28L17.53 59.7C17.78 58.21 18.53 56.91 19.82 55.78C21.22 54.58 23.13 53.95 25.5 53.95H27.33C31.27 53.95 34.42 55.4 36.8 58.25C38.36 60.21 40.35 63.78 42.78 69C45.22 74.1 47.76 79.95 50.44 86.51C53.1 92.97 55.77 99.75 58.45 106.84C61.02 113.58 63.46 119.76 65.49 125.34Z" fill="white"/>
<path d="M43.33 0.899994H180.69C193.63 0.899994 200.07 10.62 201.58 23.43L202.16 27.53C202.62 31.93 199.39 35.87 195.07 36.33C190.74 36.79 186.85 33.61 186.4 29.21L185.85 25.29C185.27 20.42 183.21 16.67 178.26 16.67H45.76C40.81 16.67 38.75 20.42 38.17 25.29L37.64 29.21C37.19 33.61 33.31 36.8 28.95 36.33C24.62 35.87 21.39 31.93 21.86 27.53L22.44 23.43C23.97 10.61 30.4 0.899994 43.33 0.899994Z" fill="white"/>
<path d="M290.4 93.2C289.45 96.87 288.47 100.79 287.44 104.96C286.41 109.11 285.38 113.1 284.37 116.9C283.37 120.7 282.43 124.02 281.51 126.9C280.61 129.77 279.85 131.73 279.25 132.79C278.19 134.67 276.31 135.6 273.64 135.6C272.89 135.6 271.93 135.45 270.72 135.14C269.52 134.84 268.53 133.99 267.71 132.6C267.11 131.54 266.36 129.48 265.45 126.4C264.55 123.33 263.61 119.81 262.59 115.8C261.59 111.8 260.6 107.56 259.58 103.09C258.58 98.62 257.67 94.49 256.87 90.63C256.07 86.81 255.39 83.52 254.86 80.83C254.33 78.12 254.03 76.53 253.96 75.98C253.89 75.65 253.86 75.42 253.86 75.28V74.88C253.86 73.75 254.28 72.82 255.16 72.12C256.02 71.42 257.1 71.07 258.37 71.07C259.58 71.07 260.55 71.34 261.29 71.83C262.02 72.31 262.55 73.21 262.88 74.47C262.88 74.6 263.08 75.58 263.43 77.38C263.81 79.17 264.28 81.48 264.84 84.27C265.42 87.08 266.05 90.2 266.75 93.67C267.45 97.14 268.18 100.66 268.96 104.23C269.72 107.78 270.5 111.22 271.27 114.58C272.03 117.9 272.75 120.78 273.43 123.17C274.09 120.91 274.82 118.32 275.64 115.41C276.44 112.52 277.25 109.51 278.05 106.43C278.85 103.32 279.61 100.23 280.36 97.13C281.09 94.02 281.77 91.14 282.42 88.48C283.05 85.81 283.6 83.45 284.06 81.39C284.52 79.31 284.89 77.78 285.17 76.77C285.5 75.51 286.13 74.51 287.06 73.78C288.02 73.05 289.14 72.67 290.48 72.67C291.94 72.67 293.15 73.07 294.1 73.83C295.01 74.6 295.63 75.59 295.89 76.77C296.64 80.04 297.43 83.7 298.3 87.73C299.16 91.75 300.08 95.84 301.01 99.97C301.96 104.1 302.94 108.16 303.92 112.13C304.93 116.1 305.9 119.62 306.84 122.68C307.5 120.29 308.23 117.41 309 114.09C309.76 110.73 310.54 107.31 311.34 103.78C312.15 100.26 312.92 96.75 313.65 93.28C314.4 89.82 315.06 86.7 315.68 83.93C316.28 81.17 316.76 78.91 317.13 77.19C317.5 75.45 317.68 74.55 317.68 74.48C318.01 73.22 318.54 72.32 319.29 71.84C320.02 71.34 321 71.08 322.2 71.08C323.46 71.08 324.54 71.43 325.4 72.13C326.28 72.83 326.71 73.76 326.71 74.89V75.29C326.71 75.42 326.68 75.66 326.61 75.99C326.56 76.54 326.23 78.13 325.65 80.84C325.1 83.53 324.41 86.82 323.61 90.64C322.8 94.49 321.9 98.61 320.89 103.05C319.91 107.48 318.91 111.7 317.95 115.69C316.97 119.69 316.04 123.22 315.13 126.25C314.23 129.27 313.47 131.33 312.87 132.39C312.07 133.79 311.06 134.68 309.82 135.05C308.57 135.42 307.59 135.6 306.86 135.6C306.58 135.6 306.2 135.57 305.65 135.5C305.12 135.42 304.55 135.3 303.94 135.09C303.34 134.9 302.74 134.58 302.15 134.15C301.53 133.7 301.07 133.12 300.74 132.39C300.14 131.13 299.41 129.02 298.58 126.1C297.75 123.16 296.84 119.86 295.87 116.15C294.91 112.44 293.94 108.58 293.01 104.54C292.07 100.51 291.19 96.72 290.4 93.2Z" fill="white"/>
<path d="M342.88 117.1C341.87 120.31 340.99 123.26 340.22 125.99C339.44 128.72 338.73 130.97 338.06 132.7C337.31 134.64 335.85 135.61 333.64 135.61C332.1 135.61 330.98 135.23 330.27 134.46C329.57 133.68 329.22 132.7 329.22 131.5C329.22 131.04 329.29 130.6 329.42 130.19C329.55 129.81 329.97 128.43 330.68 126.1C331.38 123.78 332.29 120.87 333.44 117.4C334.57 113.93 335.83 110.13 337.19 106.01C338.57 101.88 339.98 97.79 341.46 93.75C342.92 89.71 344.37 85.94 345.78 82.46C347.18 78.96 348.49 76.13 349.68 74.01C350.23 72.88 350.94 72.1 351.84 71.7C352.75 71.3 353.97 71.1 355.52 71.1C357 71.1 358.24 71.35 359.27 71.8C360.32 72.28 361.03 73.08 361.43 74.21C362.38 76.2 363.51 78.89 364.8 82.25C366.1 85.62 367.48 89.26 368.9 93.16C370.35 97.06 371.76 101.05 373.17 105.1C374.58 109.17 375.88 112.96 377.04 116.46C378.2 119.95 379.22 122.94 380.05 125.41C380.88 127.88 381.41 129.48 381.61 130.19C381.73 130.61 381.81 131.04 381.81 131.5C381.81 132.7 381.41 133.68 380.6 134.46C379.8 135.22 378.62 135.61 377.09 135.61C375.95 135.61 375.1 135.36 374.52 134.84C373.97 134.36 373.51 133.63 373.17 132.7C372.51 130.97 371.71 128.72 370.81 125.99C369.91 123.27 368.95 120.31 367.95 117.1H342.88ZM365.16 108.39C363.75 104.06 362.42 100.07 361.14 96.45C359.86 92.81 358.57 89.36 357.22 86.09C356.89 85.36 356.54 84.53 356.17 83.53C355.8 82.58 355.59 82 355.52 81.8C355.45 81.85 355.22 82.41 354.87 83.44C354.49 84.47 354.14 85.35 353.81 86.08C352.48 89.35 351.18 92.81 349.93 96.44C348.7 100.06 347.37 104.05 345.98 108.38H365.16V108.39Z" fill="white"/>
<path d="M399.17 110.39C398.84 110.07 398.52 109.69 398.22 109.29C397.91 108.91 397.59 108.43 397.26 107.9C396.31 106.57 395.32 104.96 394.2 103.05C393.09 101.16 391.99 99.13 390.88 97.01C389.78 94.87 388.72 92.71 387.69 90.55C386.64 88.39 385.7 86.38 384.88 84.52C384.03 82.64 383.32 81.02 382.72 79.67C382.1 78.29 381.72 77.33 381.61 76.8C381.48 76.47 381.4 76.22 381.36 76.05C381.34 75.88 381.31 75.63 381.31 75.3C381.31 74.1 381.73 73.09 382.56 72.31C383.41 71.5 384.55 71.1 386.03 71.1C387.36 71.1 388.31 71.43 388.89 72.1C389.45 72.78 389.89 73.45 390.14 74.11C390.27 74.46 390.6 75.17 391.1 76.3C391.6 77.45 392.21 78.84 392.94 80.5C393.67 82.16 394.52 84 395.45 86C396.41 88.01 397.34 89.97 398.32 91.91C399.28 93.84 400.23 95.68 401.13 97.46C402.03 99.22 402.89 100.67 403.69 101.81C404.97 99.87 406.33 97.44 407.81 94.5C409.27 91.56 410.68 88.67 412.01 85.81C413.35 82.94 414.5 80.4 415.48 78.2C416.44 75.99 417.02 74.63 417.24 74.1C417.51 73.44 417.92 72.77 418.49 72.09C419.05 71.43 420.02 71.09 421.35 71.09C422.83 71.09 423.97 71.49 424.82 72.3C425.65 73.08 426.07 74.09 426.07 75.29C426.07 75.62 426.05 75.87 426.02 76.04C425.99 76.21 425.9 76.46 425.79 76.79C425.58 77.32 425.19 78.28 424.63 79.7C424.07 81.09 423.35 82.74 422.51 84.6C421.68 86.46 420.75 88.49 419.72 90.65C418.67 92.83 417.61 94.97 416.51 97.11C415.4 99.23 414.3 101.28 413.19 103.21C412.09 105.14 411.06 106.78 410.13 108.11C409.53 108.97 408.88 109.75 408.22 110.4V131.11C408.22 132.44 407.81 133.52 406.96 134.37C406.13 135.18 405.05 135.62 403.7 135.62C402.35 135.62 401.28 135.19 400.44 134.37C399.59 133.52 399.18 132.44 399.18 131.11V110.39H399.17Z" fill="white"/>
</svg>
